<svg width="166" height="20" viewBox="0 0 166 20" fill="none" xmlns="http://www.w3.org/2000/svg">
<path fill-rule="evenodd" clip-rule="evenodd" d="M92.9506 11C92.4489 16.0533 88.1853 20 83 20C77.8147 20 73.5511 16.0533 73.0494 11H10V9H73.0494C73.5511 3.94668 77.8147 0 83 0C88.1853 0 92.4489 3.94668 92.9506 9H146.049C146.551 3.94668 150.815 0 156 0C161.523 0 166 4.47715 166 10C166 15.5228 161.523 20 156 20C150.815 20 146.551 16.0533 146.049 11H92.9506Z" fill="#7E85AA"/>
<circle cx="10" cy="10" r="10" fill="#29313C"/>
</svg>
