<svg width="166" height="20" viewBox="0 0 166 20" fill="none" xmlns="http://www.w3.org/2000/svg">
<path fill-rule="evenodd" clip-rule="evenodd" d="M73.0494 8.99999C73.5511 3.94667 77.8147 -5.96095e-06 83 -5.50763e-06C88.1854 -5.05432e-06 92.4489 3.94667 92.9506 9L146 9L146 11L92.9506 11C92.4489 16.0533 88.1853 20 83 20C77.8147 20 73.5511 16.0533 73.0494 11L19.9506 11C19.4489 16.0533 15.1853 20 10 20C4.47716 20 3.91405e-07 15.5228 8.74228e-07 9.99999C1.35705e-06 4.47714 4.47716 -1.23723e-05 10 -1.18895e-05C15.1854 -1.14362e-05 19.4489 3.94667 19.9506 8.99999L73.0494 8.99999Z" fill="#5870EB"/>
<circle cx="156" cy="10" r="10" transform="rotate(-180 156 10)" fill="#5870EB" fill-opacity="0.5"/>
</svg>
