<svg width="218" height="136" viewBox="0 0 218 136" fill="none" xmlns="http://www.w3.org/2000/svg">
<path d="M53.6323 120.993C31.8422 96.0745 15.2257 55.6136 34.4785 27.3457C52.9049 0.291193 77.4642 34.8174 105.165 35.0999C135.706 35.4114 160.495 0.551651 183.148 27.3457C199.407 46.5758 208.732 71.9698 199.11 97.7302C188.724 125.536 164.486 115.565 141.192 120.993C107.528 128.837 79.3748 150.431 53.6323 120.993Z" fill="#DCF0F2"/>
<g filter="url(#filter0_d)">
<path d="M78.4615 72.283L75.4111 98.5039L117.619 103.879L120.67 77.6586L78.4615 72.283Z" fill="#FAF8E4"/>
</g>
<g opacity="0.6">
<path opacity="0.6" d="M79.5717 78.68L84.9424 79.364L85.426 75.2069L80.0554 74.5229L79.5717 78.68Z" fill="#6C63FF"/>
<path opacity="0.6" d="M83.032 87.3318L103.654 89.9583L103.811 88.6095L83.1889 85.9831L83.032 87.3318Z" fill="#6C63FF"/>
<path opacity="0.6" d="M88.2792 90.9643L103.316 92.8794L103.421 91.9793L88.3839 90.0642L88.2792 90.9643Z" fill="#6C63FF"/>
</g>
<g filter="url(#filter1_d)">
<path d="M88.9333 54.4758L93.3838 80.4792L135.261 72.7967L130.81 46.7932L88.9333 54.4758Z" fill="#FAF8E4"/>
</g>
<g opacity="0.6">
<path opacity="0.6" d="M91.7907 60.2568L97.1191 59.2793L96.4136 55.1567L91.0851 56.1342L91.7907 60.2568Z" fill="#6C63FF"/>
<path opacity="0.6" d="M97.5318 67.4802L117.992 63.7266L117.763 62.389L97.3029 66.1426L97.5318 67.4802Z" fill="#6C63FF"/>
<path opacity="0.6" d="M103.57 69.3598L118.489 66.6228L118.336 65.7302L103.417 68.4672L103.57 69.3598Z" fill="#6C63FF"/>
</g>
<g filter="url(#filter2_d)">
<path d="M125.049 53.3682L116.596 78.2747L156.674 93.0524L165.127 68.1459L125.049 53.3682Z" fill="#FAF8E4"/>
</g>
<g opacity="0.6">
<path opacity="0.6" d="M124.795 59.8631L129.895 61.7434L131.235 57.7947L126.135 55.9144L124.795 59.8631Z" fill="#6C63FF"/>
<path opacity="0.6" d="M126.366 69.0896L145.948 76.3098L146.383 75.0287L126.801 67.8085L126.366 69.0896Z" fill="#6C63FF"/>
<path opacity="0.6" d="M130.729 73.8204L145.008 79.0852L145.298 78.2303L131.019 72.9655L130.729 73.8204Z" fill="#6C63FF"/>
</g>
<path d="M49.7406 66.1545L51.1437 65.3865L50.8041 65.3595L50.9112 65.2778L50.698 65.3505L10.7858 62.1293L12.2381 74.6212L14.0043 85.68L16.3886 84.376L18.8865 89.1906L49.7406 66.1545Z" fill="url(#paint0_linear)"/>
<path d="M13.5491 74.3273L15.1727 84.4403L49.8439 65.805L19.0734 67.75L13.5491 74.3273Z" fill="#6C63FF"/>
<path opacity="0.2" d="M13.5491 74.3273L15.1727 84.4403L49.8439 65.805L19.0734 67.75L13.5491 74.3273Z" fill="black"/>
<path d="M12.2236 62.8998L49.8443 65.8049L13.5495 74.3272L12.2236 62.8998Z" fill="#6C63FF"/>
<path d="M19.7175 87.6449L49.6273 65.7093L14.3065 77.3679L19.7175 87.6449Z" fill="#6C63FF"/>
<path d="M85.0454 39.5076L86.151 39.9315L86.0082 39.7196L86.1061 39.7401L85.9639 39.6531L69.2077 14.7292L62.564 21.9878L56.9069 28.6939L58.785 29.4147L57.1298 33.3423L85.0454 39.5076Z" fill="url(#paint1_linear)"/>
<path d="M63.3486 22.6014L58.1793 28.7389L85.2985 39.3885L69.7844 22.4464L63.3486 22.6014Z" fill="#6C63FF"/>
<path opacity="0.2" d="M63.3486 22.6014L58.1793 28.7389L85.2985 39.3885L69.7844 22.4464L63.3486 22.6014Z" fill="black"/>
<path d="M69.4287 15.9631L85.2997 39.3887L63.3498 22.6016L69.4287 15.9631Z" fill="#6C63FF"/>
<path d="M58.4247 33.0332L85.2541 39.2128L61.9209 24.6033L58.4247 33.0332Z" fill="#6C63FF"/>
<path d="M207.419 47.1503L207.973 46.0557L207.754 46.2002L207.787 46.1036L207.686 46.245L181.955 63.1926L187.812 69.5788L193.291 75.0064L194.233 73.1472L197.677 74.697L207.419 47.1503Z" fill="url(#paint2_linear)"/>
<path d="M188.499 68.7958L193.514 73.7552L207.344 46.9037L189.268 62.4756L188.499 68.7958Z" fill="#6C63FF"/>
<path opacity="0.2" d="M188.499 68.7958L193.514 73.7552L207.344 46.9037L189.268 62.4756L188.499 68.7958Z" fill="black"/>
<path d="M183.144 62.9516L207.345 46.9028L188.5 68.7949L183.144 62.9516Z" fill="#6C63FF"/>
<path d="M197.572 73.4316L207.173 46.9517L190.171 70.1606L197.572 73.4316Z" fill="#6C63FF"/>
<defs>
<filter id="filter0_d" x="73.4111" y="72.283" width="49.2586" height="37.5965" filterUnits="userSpaceOnUse" color-interpolation-filters="sRGB">
<feFlood flood-opacity="0" result="BackgroundImageFix"/>
<feColorMatrix in="SourceAlpha" type="matrix" values="0 0 0 0 0 0 0 0 0 0 0 0 0 0 0 0 0 0 127 0"/>
<feOffset dy="4"/>
<feGaussianBlur stdDeviation="1"/>
<feColorMatrix type="matrix" values="0 0 0 0 0 0 0 0 0 0 0 0 0 0 0 0 0 0 0.25 0"/>
<feBlend mode="normal" in2="BackgroundImageFix" result="effect1_dropShadow"/>
<feBlend mode="normal" in="SourceGraphic" in2="effect1_dropShadow" result="shape"/>
</filter>
<filter id="filter1_d" x="86.9336" y="46.7932" width="50.3273" height="39.6861" filterUnits="userSpaceOnUse" color-interpolation-filters="sRGB">
<feFlood flood-opacity="0" result="BackgroundImageFix"/>
<feColorMatrix in="SourceAlpha" type="matrix" values="0 0 0 0 0 0 0 0 0 0 0 0 0 0 0 0 0 0 127 0"/>
<feOffset dy="4"/>
<feGaussianBlur stdDeviation="1"/>
<feColorMatrix type="matrix" values="0 0 0 0 0 0 0 0 0 0 0 0 0 0 0 0 0 0 0.25 0"/>
<feBlend mode="normal" in2="BackgroundImageFix" result="effect1_dropShadow"/>
<feBlend mode="normal" in="SourceGraphic" in2="effect1_dropShadow" result="shape"/>
</filter>
<filter id="filter2_d" x="114.596" y="53.3682" width="52.5317" height="45.6842" filterUnits="userSpaceOnUse" color-interpolation-filters="sRGB">
<feFlood flood-opacity="0" result="BackgroundImageFix"/>
<feColorMatrix in="SourceAlpha" type="matrix" values="0 0 0 0 0 0 0 0 0 0 0 0 0 0 0 0 0 0 127 0"/>
<feOffset dy="4"/>
<feGaussianBlur stdDeviation="1"/>
<feColorMatrix type="matrix" values="0 0 0 0 0 0 0 0 0 0 0 0 0 0 0 0 0 0 0.25 0"/>
<feBlend mode="normal" in2="BackgroundImageFix" result="effect1_dropShadow"/>
<feBlend mode="normal" in="SourceGraphic" in2="effect1_dropShadow" result="shape"/>
</filter>
<linearGradient id="paint0_linear" x1="14551.3" y1="14900.1" x2="14309.8" y2="12600.2" gradientUnits="userSpaceOnUse">
<stop stop-color="#808080" stop-opacity="0.25"/>
<stop offset="0.54" stop-color="#808080" stop-opacity="0.12"/>
<stop offset="1" stop-color="#808080" stop-opacity="0.1"/>
</linearGradient>
<linearGradient id="paint1_linear" x1="-1835.7" y1="16108.6" x2="-556.878" y2="14830.9" gradientUnits="userSpaceOnUse">
<stop stop-color="#808080" stop-opacity="0.25"/>
<stop offset="0.54" stop-color="#808080" stop-opacity="0.12"/>
<stop offset="1" stop-color="#808080" stop-opacity="0.1"/>
</linearGradient>
<linearGradient id="paint2_linear" x1="14989.1" y1="1621.74" x2="13905.2" y2="453.72" gradientUnits="userSpaceOnUse">
<stop stop-color="#808080" stop-opacity="0.25"/>
<stop offset="0.54" stop-color="#808080" stop-opacity="0.12"/>
<stop offset="1" stop-color="#808080" stop-opacity="0.1"/>
</linearGradient>
</defs>
</svg>
