<svg width="177" height="162" viewBox="0 0 177 162" fill="none" xmlns="http://www.w3.org/2000/svg">
<path d="M27.6323 132.993C5.84219 108.075 -10.7743 67.6136 8.47849 39.3457C26.9049 12.2912 51.4642 46.8174 79.1651 47.0999C109.706 47.4114 134.495 12.5517 157.148 39.3457C173.407 58.5758 182.732 83.9698 173.11 109.73C162.724 137.536 138.486 127.565 115.192 132.993C81.5281 140.837 53.3748 162.431 27.6323 132.993Z" fill="#9EDC8E"/>
<g clip-path="url(#clip0)">
<path d="M103.91 89.0972H87.4736V162H103.91V89.0972Z" fill="url(#paint0_linear)"/>
<path d="M102.827 89.0972H88.9863V160.696H102.827V89.0972Z" fill="#ECEFF1"/>
<path d="M142.147 32.2969H68.1246C65.5802 32.3622 63.0726 32.9245 60.7414 33.9525C53.2169 37.3082 48.8373 42.5751 47.6005 54.2556V81.2411L27.9863 81.0322C24.0418 81.0322 22.5996 87.2725 22.5996 91.4904H155.093V46.1397C155.093 38.4949 149.305 32.2969 142.147 32.2969Z" fill="url(#paint1_linear)"/>
<path d="M70.8193 35.1257H144.161C146.544 35.1257 148.829 36.0782 150.514 37.7736C152.199 39.469 153.146 41.7685 153.146 44.1661V89.0969H70.8193V35.1257Z" fill="#6C63FF"/>
<path d="M69.0854 35.1257C74.3624 35.1257 79.4232 37.2351 83.1546 40.9897C86.886 44.7443 88.9823 49.8367 88.9823 55.1466V79.2987C88.9823 81.8973 87.9564 84.3895 86.1302 86.227C84.3041 88.0645 81.8273 89.0969 79.2447 89.0969H58.926C56.3435 89.0969 53.8667 88.0645 52.0405 86.227C50.2144 84.3895 49.1885 81.8973 49.1885 79.2987V55.1466C49.1885 49.8367 51.2848 44.7443 55.0161 40.9897C58.7475 37.2351 63.8084 35.1257 69.0854 35.1257Z" fill="#6C63FF"/>
<path opacity="0.2" d="M69.0854 35.1257C74.3624 35.1257 79.4232 37.2351 83.1546 40.9897C86.886 44.7443 88.9823 49.8367 88.9823 55.1466V79.2987C88.9823 81.8973 87.9564 84.3895 86.1302 86.227C84.3041 88.0645 81.8273 89.0969 79.2447 89.0969H58.926C56.3435 89.0969 53.8667 88.0645 52.0405 86.227C50.2144 84.3895 49.1885 81.8973 49.1885 79.2987V55.1466C49.1885 49.8367 51.2848 44.7443 55.0161 40.9897C58.7475 37.2351 63.8084 35.1257 69.0854 35.1257Z" fill="black"/>
<path d="M122.078 27.9456H111.806H105.642V40.2372V55.3645H113.102V40.2372H122.078V27.9456Z" fill="url(#paint2_linear)"/>
<path d="M120.779 27.9456H112.128H106.938V39.2616V53.1888H112.128V39.2616H120.779V27.9456Z" fill="#FFCC80"/>
<path d="M49.35 45.4291L47.3037 62.345L74.658 65.6953L76.7043 48.7795L49.35 45.4291Z" fill="url(#paint3_linear)"/>
<path d="M49.6343 45.8907L47.7246 61.677L74.1515 64.9138L76.0612 49.1274L49.6343 45.8907Z" fill="#FAF8E4"/>
<g opacity="0.6">
<path opacity="0.6" d="M50.3273 49.7417L53.6904 50.1536L53.9933 47.6497L50.6302 47.2378L50.3273 49.7417Z" fill="#6C63FF"/>
<path opacity="0.6" d="M52.4963 54.9494L65.4072 56.5308L65.5054 55.7189L52.5945 54.1376L52.4963 54.9494Z" fill="#6C63FF"/>
<path opacity="0.6" d="M55.7803 57.138L65.1943 58.291L65.2597 57.7505L55.8457 56.5975L55.7803 57.138Z" fill="#6C63FF"/>
</g>
<path d="M60.4945 49.1501L58.4482 66.0659L85.8025 69.4163L87.8488 52.5004L60.4945 49.1501Z" fill="url(#paint4_linear)"/>
<path d="M60.7798 49.614L58.8701 65.4004L85.297 68.6372L87.2067 52.8508L60.7798 49.614Z" fill="#FAF8E4"/>
<g opacity="0.6">
<path opacity="0.6" d="M61.4748 53.4653L64.8379 53.8772L65.1408 51.3734L61.7777 50.9614L61.4748 53.4653Z" fill="#6C63FF"/>
<path opacity="0.6" d="M63.6438 58.6731L76.5547 60.2544L76.6529 59.4426L63.742 57.8612L63.6438 58.6731Z" fill="#6C63FF"/>
<path opacity="0.6" d="M66.9238 60.8611L76.3379 62.0142L76.4033 61.4737L66.9892 60.3206L66.9238 60.8611Z" fill="#6C63FF"/>
</g>
<path d="M36.8128 50.7404L34.0391 73.6699L71.1166 78.2112L73.8903 55.2817L36.8128 50.7404Z" fill="url(#paint5_linear)"/>
<path d="M37.2011 51.3627L34.6123 72.7634L70.4335 77.1508L73.0224 55.7501L37.2011 51.3627Z" fill="white"/>
<g opacity="0.6">
<path opacity="0.6" d="M38.1403 56.5843L42.6982 57.1426L43.1087 53.7497L38.5507 53.1914L38.1403 56.5843Z" fill="#6C63FF"/>
<path opacity="0.6" d="M41.0773 63.6457L58.5791 65.7893L58.7123 64.6885L41.2105 62.5449L41.0773 63.6457Z" fill="#6C63FF"/>
<path opacity="0.6" d="M45.5302 66.6105L58.292 68.1736L58.3809 67.439L45.619 65.8759L45.5302 66.6105Z" fill="#6C63FF"/>
</g>
<path d="M51.9222 55.7839L49.1484 78.7134L86.2259 83.2546L88.9997 60.3251L51.9222 55.7839Z" fill="url(#paint6_linear)"/>
<path d="M52.3076 56.4103L49.7188 77.811L85.54 82.1984L88.1288 60.7977L52.3076 56.4103Z" fill="white"/>
<g opacity="0.6">
<path opacity="0.6" d="M53.2487 61.6314L57.8066 62.1897L58.2171 58.7968L53.6591 58.2386L53.2487 61.6314Z" fill="#6C63FF"/>
<path opacity="0.6" d="M56.1858 68.6928L73.6875 70.8364L73.8207 69.7356L56.3189 67.592L56.1858 68.6928Z" fill="#6C63FF"/>
<path opacity="0.6" d="M60.6386 71.6574L73.4004 73.2205L73.4893 72.4859L60.7274 70.9228L60.6386 71.6574Z" fill="#6C63FF"/>
</g>
<path opacity="0.2" d="M68.8725 35.3435C66.2697 35.3414 63.6919 35.8549 61.2861 36.8547C62.2232 36.7194 63.1686 36.6511 64.1153 36.6502C66.7282 36.6502 69.3155 37.1681 71.7295 38.1742C74.1435 39.1804 76.3369 40.6551 78.1845 42.5142C80.0321 44.3733 81.4977 46.5804 82.4976 49.0094C83.4975 51.4385 84.0122 54.0419 84.0122 56.6711V88.4501H88.7694V55.3643C88.7694 50.0545 86.6732 44.9621 82.9418 41.2075C79.2104 37.4528 74.1495 35.3435 68.8725 35.3435Z" fill="black"/>
<path d="M31.8904 82.1323H88.986V89.097H24.9688C24.9688 87.2499 25.698 85.4784 26.996 84.1722C28.2941 82.8661 30.0546 82.1323 31.8904 82.1323Z" fill="#6C63FF"/>
<path opacity="0.2" d="M31.8904 82.1323H88.986V89.097H24.9688C24.9688 87.2499 25.698 85.4784 26.996 84.1722C28.2941 82.8661 30.0546 82.1323 31.8904 82.1323Z" fill="white"/>
<path d="M156.184 15.6851L155.528 16.0073L155.603 15.8718L155.546 15.8895L155.628 15.8295L164.466 0L168.985 3.87794L172.863 7.4892L171.75 8.03589L173 10.256L156.184 15.6851Z" fill="url(#paint7_linear)"/>
<path d="M168.539 4.29126L172.081 7.59806L156.021 15.6317L164.568 4.60905L168.539 4.29126Z" fill="#6C63FF"/>
<path opacity="0.2" d="M168.539 4.29126L172.081 7.59806L156.021 15.6317L164.568 4.60905L168.539 4.29126Z" fill="black"/>
<path d="M164.404 0.744385L156.021 15.6317L168.539 4.2912L164.404 0.744385Z" fill="#6C63FF"/>
<path d="M172.185 10.1558L156.038 15.5227L169.535 5.38452L172.185 10.1558Z" fill="#6C63FF"/>
<path d="M37.8715 19.3276L38.9272 19.4921L38.7638 19.3365H38.8543L38.713 19.2876L19.5295 0.982422L14.8738 8.37606L11 15.1208L12.7933 15.4008L11.9983 19.0543L37.8715 19.3276Z" fill="url(#paint8_linear)"/>
<path d="M15.6778 8.76033L12.1396 14.9317L38.077 19.1808L21.3714 7.47583L15.6778 8.76033Z" fill="#6C63FF"/>
<path opacity="0.2" d="M15.6778 8.76033L12.1396 14.9317L38.077 19.1808L21.3714 7.47583L15.6778 8.76033Z" fill="black"/>
<path d="M19.938 1.9978L38.0769 19.1807L15.6777 8.7603L19.938 1.9978Z" fill="#6C63FF"/>
<path d="M13.0957 18.5585L38.006 19.0385L14.7521 10.7271L13.0957 18.5585Z" fill="#6C63FF"/>
</g>
<defs>
<linearGradient id="paint0_linear" x1="95.6917" y1="162" x2="95.6917" y2="89.0972" gradientUnits="userSpaceOnUse">
<stop stop-color="#808080" stop-opacity="0.25"/>
<stop offset="0.54" stop-color="#808080" stop-opacity="0.12"/>
<stop offset="1" stop-color="#808080" stop-opacity="0.1"/>
</linearGradient>
<linearGradient id="paint1_linear" x1="31590.5" y1="21449.7" x2="111080" y2="21449.7" gradientUnits="userSpaceOnUse">
<stop stop-color="#808080" stop-opacity="0.25"/>
<stop offset="0.54" stop-color="#808080" stop-opacity="0.12"/>
<stop offset="1" stop-color="#808080" stop-opacity="0.1"/>
</linearGradient>
<linearGradient id="paint2_linear" x1="7760.43" y1="6858.82" x2="7760.43" y2="3475.87" gradientUnits="userSpaceOnUse">
<stop stop-color="#808080" stop-opacity="0.25"/>
<stop offset="0.54" stop-color="#808080" stop-opacity="0.12"/>
<stop offset="1" stop-color="#808080" stop-opacity="0.1"/>
</linearGradient>
<linearGradient id="paint3_linear" x1="-5678.08" y1="10018.4" x2="-5419.62" y2="7908.15" gradientUnits="userSpaceOnUse">
<stop stop-color="#808080" stop-opacity="0.25"/>
<stop offset="0.54" stop-color="#808080" stop-opacity="0.12"/>
<stop offset="1" stop-color="#808080" stop-opacity="0.1"/>
</linearGradient>
<linearGradient id="paint4_linear" x1="-4848.46" y1="10417.8" x2="-4590" y2="8307.64" gradientUnits="userSpaceOnUse">
<stop stop-color="#808080" stop-opacity="0.25"/>
<stop offset="0.54" stop-color="#808080" stop-opacity="0.12"/>
<stop offset="1" stop-color="#808080" stop-opacity="0.1"/>
</linearGradient>
<linearGradient id="paint5_linear" x1="-8673.57" y1="15642.4" x2="-8198.7" y2="11765.3" gradientUnits="userSpaceOnUse">
<stop stop-color="#808080" stop-opacity="0.25"/>
<stop offset="0.54" stop-color="#808080" stop-opacity="0.12"/>
<stop offset="1" stop-color="#808080" stop-opacity="0.1"/>
</linearGradient>
<linearGradient id="paint6_linear" x1="-7143.63" y1="16375.2" x2="-6668.76" y2="12498" gradientUnits="userSpaceOnUse">
<stop stop-color="#808080" stop-opacity="0.25"/>
<stop offset="0.54" stop-color="#808080" stop-opacity="0.12"/>
<stop offset="1" stop-color="#808080" stop-opacity="0.1"/>
</linearGradient>
<linearGradient id="paint7_linear" x1="-2520.92" y1="12223.5" x2="-3242.24" y2="11610.4" gradientUnits="userSpaceOnUse">
<stop stop-color="#808080" stop-opacity="0.25"/>
<stop offset="0.54" stop-color="#808080" stop-opacity="0.12"/>
<stop offset="1" stop-color="#808080" stop-opacity="0.1"/>
</linearGradient>
<linearGradient id="paint8_linear" x1="1096.66" y1="14098.6" x2="1960.45" y2="12743.8" gradientUnits="userSpaceOnUse">
<stop stop-color="#808080" stop-opacity="0.25"/>
<stop offset="0.54" stop-color="#808080" stop-opacity="0.12"/>
<stop offset="1" stop-color="#808080" stop-opacity="0.1"/>
</linearGradient>
<clipPath id="clip0">
<rect x="11" width="162" height="162" fill="white"/>
</clipPath>
</defs>
</svg>
